<svg xmlns="http://www.w3.org/2000/svg" width="633.553" height="135.693" viewBox="0 0 633.553 135.693">
  <g id="logosbeneficaireserasmusleft_en_0" transform="translate(0.01)">
    <g id="Layer_1" transform="translate(432.12)">
      <g id="Group_79" data-name="Group 79">
        <rect id="Rectangle_962" data-name="Rectangle 962" width="201.423" height="135.693" fill="#224f9f"/>
        <g id="Group_78" data-name="Group 78" transform="translate(49.775 17.369)">
          <path id="Path_951" data-name="Path 951" d="M714.532,79.721l-2.1-.041-3.113-.057-1.016-2.772-.658-1.772L707,76.852l-1.008,2.772-3.1.057-2.105.041,1.715,1.235,2.455,1.764-.894,2.772-.61,1.886,1.658-1.089,2.544-1.691,2.577,1.691,1.634,1.089-.593-1.886-.886-2.772,2.438-1.764Z" transform="translate(-613.097 -31.426)" fill="#faed36" stroke="#faed36" stroke-width="1.11"/>
          <path id="Path_952" data-name="Path 952" d="M697.765,55.8l-.878,2.78-.6,1.878,1.642-1.081,2.56-1.707,2.576,1.707,1.626,1.081-.593-1.878-.886-2.78,2.438-1.764,1.723-1.235-2.1-.033-3.121-.049-1.008-2.78-.658-1.788-.65,1.788-1.008,2.78-3.1.049-2.105.033,1.707,1.235Z" transform="translate(-611.757 -26.384)" fill="#faed36" stroke="#faed36" stroke-width="1.11"/>
          <path id="Path_953" data-name="Path 953" d="M682.68,33.14l-1.016-2.78-.658-1.78-.65,1.78-1.008,2.78-3.113.049-2.105.049,1.723,1.235,2.446,1.764-.886,2.772-.618,1.886,1.658-1.081,2.552-1.7,2.56,1.7,1.65,1.081-.61-1.886-.87-2.772,2.438-1.764,1.715-1.235-2.1-.049Z" transform="translate(-608.108 -22.72)" fill="#faed36" stroke="#faed36" stroke-width="1.11"/>
          <path id="Path_954" data-name="Path 954" d="M655.439,25.922l-1.016-2.772-.666-1.78-.634,1.78-1.016,2.772-3.113.065-2.113.033,1.731,1.235,2.438,1.772-.886,2.78-.61,1.878,1.65-1.073,2.552-1.707,2.576,1.707,1.642,1.073-.6-1.878-.878-2.78,2.438-1.772,1.7-1.235-2.089-.033Z" transform="translate(-603.006 -21.37)" fill="#faed36" stroke="#faed36" stroke-width="1.11"/>
          <path id="Path_955" data-name="Path 955" d="M628.432,33.14l-1.016-2.78-.634-1.78-.65,1.78-1.016,2.78L622,33.188l-2.113.041,1.715,1.235,2.455,1.756L623.174,39l-.6,1.894,1.642-1.1,2.568-1.691,2.544,1.691,1.65,1.1-.6-1.894-.886-2.78,2.446-1.756,1.723-1.235-2.113-.041Z" transform="translate(-597.953 -22.72)" fill="#faed36" stroke="#faed36" stroke-width="1.11"/>
          <path id="Path_956" data-name="Path 956" d="M608.778,52.513l-1-2.763-.642-1.78-.658,1.78-1.008,2.763-3.113.057-2.1.041,1.715,1.235,2.438,1.764-.894,2.772-.593,1.886,1.634-1.081,2.568-1.7,2.56,1.7,1.642,1.081-.6-1.886-.886-2.772,2.455-1.764L614,52.611,611.9,52.57Z" transform="translate(-594.278 -26.35)" fill="#faed36" stroke="#faed36" stroke-width="1.11"/>
          <path id="Path_957" data-name="Path 957" d="M602.336,86.238l1.65,1.089-.6-1.894-.886-2.772,2.438-1.764,1.715-1.227-2.1-.041-3.113-.057-1.016-2.763-.642-1.78-.658,1.78-1.016,2.763-3.1.057-2.105.041,1.707,1.227,2.455,1.764-.886,2.772-.6,1.894,1.642-1.089,2.568-1.7Z" transform="translate(-592.9 -31.416)" fill="#faed36" stroke="#faed36" stroke-width="1.11"/>
          <path id="Path_958" data-name="Path 958" d="M608.692,106.283l-1.016-2.763-.642-1.78-.658,1.78-1.016,2.763-3.1.065-2.105.049,1.715,1.219,2.438,1.772-.878,2.772-.61,1.869,1.642-1.065,2.56-1.7,2.568,1.7,1.634,1.073-.6-1.878-.87-2.772,2.438-1.772,1.707-1.219-2.105-.049Z" transform="translate(-594.257 -36.417)" fill="#faed36" stroke="#faed36" stroke-width="1.11"/>
          <path id="Path_959" data-name="Path 959" d="M628.2,125.83l-1.008-2.78-.65-1.78-.658,1.78-1.008,2.78-3.121.049-2.1.049,1.723,1.227,2.43,1.764-.87,2.772-.61,1.886,1.634-1.073,2.576-1.7,2.544,1.7,1.658,1.073-.61-1.886-.878-2.772,2.438-1.764,1.723-1.227-2.113-.049Z" transform="translate(-597.91 -40.073)" fill="#faed36" stroke="#faed36" stroke-width="1.11"/>
          <path id="Path_960" data-name="Path 960" d="M655.412,133.043l-1.008-2.755-.658-1.788-.634,1.788-1.024,2.755-3.1.065-2.113.049,1.715,1.244,2.455,1.747-.894,2.772-.593,1.894,1.642-1.089,2.552-1.7,2.568,1.7,1.642,1.089-.593-1.894-.894-2.772,2.446-1.747,1.707-1.244-2.089-.049Z" transform="translate(-603.004 -41.427)" fill="#faed36" stroke="#faed36" stroke-width="1.11"/>
          <path id="Path_961" data-name="Path 961" d="M682.432,125.963l-1.016-2.772-.65-1.772-.65,1.772-1.008,2.772-3.113.065-2.105.041,1.723,1.227,2.438,1.764-.878,2.772-.6,1.886,1.634-1.073,2.56-1.7,2.568,1.7,1.626,1.073-.585-1.886-.878-2.772,2.43-1.764,1.715-1.227-2.105-.041Z" transform="translate(-608.063 -40.102)" fill="#faed36" stroke="#faed36" stroke-width="1.11"/>
          <path id="Path_962" data-name="Path 962" d="M702.052,106.513l-1.016-2.772-.65-1.772-.642,1.772-1.024,2.772-3.1.057-2.105.041,1.723,1.244,2.438,1.756-.886,2.78-.593,1.886,1.634-1.089,2.56-1.691,2.568,1.691,1.626,1.089-.6-1.886-.87-2.78,2.446-1.756,1.715-1.244-2.105-.041Z" transform="translate(-611.736 -36.46)" fill="#faed36" stroke="#faed36" stroke-width="1.11"/>
        </g>
      </g>
    </g>
    <g id="Layer_4" transform="translate(-0.01 3.601)">
      <g id="Group_80" data-name="Group 80">
        <path id="Path_963" data-name="Path 963" d="M139.474,23.825l3.853.975a12.941,12.941,0,0,1-4.357,7.234,12.006,12.006,0,0,1-7.689,2.487,14.045,14.045,0,0,1-7.648-1.918,11.922,11.922,0,0,1-4.487-5.543,19.827,19.827,0,0,1-1.536-7.8,17.053,17.053,0,0,1,1.739-7.925A11.886,11.886,0,0,1,124.291,6.2a14.44,14.44,0,0,1,7.055-1.756,11.93,11.93,0,0,1,7.339,2.219,11.546,11.546,0,0,1,4.145,6.25l-3.788.894a9.057,9.057,0,0,0-2.934-4.625,7.813,7.813,0,0,0-4.844-1.447,9.41,9.41,0,0,0-5.608,1.609,8.441,8.441,0,0,0-3.162,4.316,17.326,17.326,0,0,0-.91,5.584,17.7,17.7,0,0,0,1.081,6.478,8.068,8.068,0,0,0,3.365,4.137,9.461,9.461,0,0,0,4.942,1.374,8.329,8.329,0,0,0,5.478-1.861,9.585,9.585,0,0,0,3.04-5.535Z" transform="translate(-22.011 -4.432)" fill="#224f9f"/>
        <path id="Path_964" data-name="Path 964" d="M152.878,25.333q0-5.852,3.251-8.672a9.808,9.808,0,0,1,6.624-2.341,9.472,9.472,0,0,1,7.1,2.845q2.755,2.853,2.755,7.868a13.926,13.926,0,0,1-1.219,6.4,8.675,8.675,0,0,1-3.552,3.625,10.318,10.318,0,0,1-5.088,1.292A9.464,9.464,0,0,1,155.6,33.51q-2.731-2.841-2.731-8.177Zm3.674,0q0,4.048,1.764,6.063a5.668,5.668,0,0,0,4.446,2.016,5.59,5.59,0,0,0,4.422-2.024q1.768-2.024,1.764-6.169,0-3.914-1.78-5.925a5.661,5.661,0,0,0-4.413-2.016,5.726,5.726,0,0,0-4.446,2c-1.179,1.333-1.764,3.357-1.764,6.055Z" transform="translate(-28.612 -6.282)" fill="#224f9f"/>
        <path id="Path_965" data-name="Path 965" d="M180.62,29.262V25.67h10.973v3.592Z" transform="translate(-33.808 -8.407)" fill="#224f9f"/>
        <path id="Path_966" data-name="Path 966" d="M199.294,34.015v-18.3H196.14V12.94h3.154V10.7a9.791,9.791,0,0,1,.374-3.154,4.576,4.576,0,0,1,1.812-2.251,6.539,6.539,0,0,1,3.641-.862,17.668,17.668,0,0,1,3.332.358L207.917,7.9a12.15,12.15,0,0,0-2.105-.2,3.126,3.126,0,0,0-2.3.7,3.773,3.773,0,0,0-.675,2.6v1.943h4.1v2.78h-4.1v18.3h-3.552Z" transform="translate(-36.714 -4.43)" fill="#224f9f"/>
        <path id="Path_967" data-name="Path 967" d="M226.659,35.977v-3.1a7.711,7.711,0,0,1-6.689,3.568,8.5,8.5,0,0,1-3.487-.715,5.7,5.7,0,0,1-2.4-1.8,6.76,6.76,0,0,1-1.105-2.65,18.022,18.022,0,0,1-.219-3.332V14.91h3.568V26.6a20.778,20.778,0,0,0,.219,3.771,3.709,3.709,0,0,0,1.43,2.211,4.41,4.41,0,0,0,2.7.8,5.922,5.922,0,0,0,3.015-.821,4.551,4.551,0,0,0,1.991-2.243,11.245,11.245,0,0,0,.585-4.121V14.91h3.568V35.985h-3.194Z" transform="translate(-39.825 -6.392)" fill="#224f9f"/>
        <path id="Path_968" data-name="Path 968" d="M240.67,35.869V14.8h3.219v3a7.561,7.561,0,0,1,6.705-3.471,8.83,8.83,0,0,1,3.5.683,5.5,5.5,0,0,1,2.39,1.8,6.871,6.871,0,0,1,1.114,2.642,20.774,20.774,0,0,1,.2,3.471V35.877h-3.568V23.059a9.7,9.7,0,0,0-.415-3.267,3.418,3.418,0,0,0-1.479-1.723,4.684,4.684,0,0,0-2.487-.642,5.79,5.79,0,0,0-3.942,1.447q-1.658,1.451-1.658,5.494V35.877h-3.568Z" transform="translate(-45.05 -6.283)" fill="#224f9f"/>
        <path id="Path_969" data-name="Path 969" d="M281.853,34.129V31.472a6.554,6.554,0,0,1-5.893,3.137,8.247,8.247,0,0,1-4.633-1.39,9.153,9.153,0,0,1-3.275-3.877,13.421,13.421,0,0,1-1.162-5.722,14.806,14.806,0,0,1,1.048-5.722,8.331,8.331,0,0,1,3.154-3.942,8.444,8.444,0,0,1,4.706-1.374,7.009,7.009,0,0,1,3.389.8,7.141,7.141,0,0,1,2.422,2.1V5.04h3.552V34.129h-3.316Zm-11.29-10.517q0,4.048,1.707,6.055a5.149,5.149,0,0,0,4.031,2,5.058,5.058,0,0,0,3.974-1.918q1.634-1.914,1.634-5.844,0-4.328-1.666-6.348a5.127,5.127,0,0,0-4.1-2.024,4.9,4.9,0,0,0-3.975,1.943c-1.065,1.292-1.6,3.341-1.6,6.128Z" transform="translate(-49.959 -4.544)" fill="#224f9f"/>
        <path id="Path_970" data-name="Path 970" d="M310.443,29.08l3.69.455a9.038,9.038,0,0,1-3.235,5.023,9.751,9.751,0,0,1-6.031,1.788,9.654,9.654,0,0,1-7.331-2.845q-2.707-2.841-2.707-7.99c0-3.43.91-6.3,2.739-8.258a9.269,9.269,0,0,1,7.1-2.934,8.885,8.885,0,0,1,6.909,2.877q2.682,2.877,2.682,8.1c0,.211,0,.528-.016.951H298.528a8.066,8.066,0,0,0,1.967,5.316A5.853,5.853,0,0,0,304.9,33.4a5.46,5.46,0,0,0,3.357-1.032,6.89,6.89,0,0,0,2.2-3.292Zm-11.728-5.771h11.769a7.187,7.187,0,0,0-1.349-3.991,5.474,5.474,0,0,0-4.422-2.064,5.683,5.683,0,0,0-4.137,1.65,6.478,6.478,0,0,0-1.853,4.405Z" transform="translate(-55.19 -6.282)" fill="#224f9f"/>
        <path id="Path_971" data-name="Path 971" d="M337.473,34.129V31.472a6.554,6.554,0,0,1-5.893,3.137,8.247,8.247,0,0,1-4.633-1.39,9.154,9.154,0,0,1-3.275-3.877,13.422,13.422,0,0,1-1.162-5.722,14.806,14.806,0,0,1,1.048-5.722,8.331,8.331,0,0,1,3.154-3.942,8.444,8.444,0,0,1,4.706-1.374,7.009,7.009,0,0,1,3.389.8,7.141,7.141,0,0,1,2.422,2.1V5.04h3.552V34.129h-3.316Zm-11.29-10.517q0,4.048,1.707,6.055a5.15,5.15,0,0,0,4.031,2,5.058,5.058,0,0,0,3.975-1.918q1.634-1.914,1.634-5.844,0-4.328-1.666-6.348a5.127,5.127,0,0,0-4.1-2.024,4.9,4.9,0,0,0-3.974,1.943c-1.065,1.292-1.6,3.341-1.6,6.128Z" transform="translate(-60.373 -4.544)" fill="#224f9f"/>
        <path id="Path_972" data-name="Path 972" d="M369.086,34.129H365.77V5.04h3.568V15.419a7.06,7.06,0,0,1,5.771-2.837,8.912,8.912,0,0,1,3.682.78,7.564,7.564,0,0,1,2.861,2.2,10.622,10.622,0,0,1,1.756,3.422,14.107,14.107,0,0,1,.634,4.283q0,5.413-2.682,8.372A8.393,8.393,0,0,1,374.93,34.6a6.694,6.694,0,0,1-5.852-3.113v2.642Zm-.041-10.7a10.922,10.922,0,0,0,1.032,5.478,5.111,5.111,0,0,0,8.615.723c1.138-1.357,1.707-3.373,1.707-6.063s-.545-4.779-1.634-6.088a4.992,4.992,0,0,0-3.958-1.967,5.154,5.154,0,0,0-4.048,2.032,8.929,8.929,0,0,0-1.707,5.885Z" transform="translate(-68.472 -4.544)" fill="#224f9f"/>
        <path id="Path_973" data-name="Path 973" d="M392.978,44.1l-.4-3.357a7.975,7.975,0,0,0,2.04.317,3.847,3.847,0,0,0,1.9-.4,3.2,3.2,0,0,0,1.17-1.114,17.489,17.489,0,0,0,1.089-2.658c.065-.2.171-.488.317-.87l-8-21.116h3.853l4.389,12.208c.569,1.544,1.081,3.178,1.528,4.885a46.975,46.975,0,0,1,1.471-4.8l4.5-12.281h3.568L402.4,36.341a41.106,41.106,0,0,1-2.008,4.779,7.078,7.078,0,0,1-2.186,2.593,5.119,5.119,0,0,1-2.934.821,7.089,7.089,0,0,1-2.3-.439Z" transform="translate(-73.214 -6.39)" fill="#224f9f"/>
        <path id="Path_974" data-name="Path 974" d="M439.84,31.083l.512,3.154a13.265,13.265,0,0,1-2.7.317,6.047,6.047,0,0,1-3.015-.618,3.447,3.447,0,0,1-1.512-1.617,12.719,12.719,0,0,1-.439-4.218V15.973H430.07v-2.78h2.617V7.976l3.552-2.146v7.38h3.592v2.78h-3.592V28.311a6.4,6.4,0,0,0,.187,1.967,1.554,1.554,0,0,0,.618.7,2.385,2.385,0,0,0,1.219.26,12.171,12.171,0,0,0,1.569-.138Z" transform="translate(-80.51 -4.692)" fill="#224f9f"/>
        <path id="Path_975" data-name="Path 975" d="M446.39,34.129V5.04h3.568V15.476a7.966,7.966,0,0,1,6.307-2.893,8.452,8.452,0,0,1,4.064.927,5.437,5.437,0,0,1,2.471,2.552,11.735,11.735,0,0,1,.748,4.722V34.137H459.98V20.775a5.527,5.527,0,0,0-1.162-3.9,4.317,4.317,0,0,0-3.284-1.219,5.807,5.807,0,0,0-2.983.821,4.608,4.608,0,0,0-1.991,2.235,10.249,10.249,0,0,0-.593,3.893V34.129H446.4Z" transform="translate(-83.566 -4.544)" fill="#224f9f"/>
        <path id="Path_976" data-name="Path 976" d="M488.344,29.08l3.69.455a9.038,9.038,0,0,1-3.235,5.023,9.752,9.752,0,0,1-6.031,1.788,9.654,9.654,0,0,1-7.331-2.845q-2.706-2.841-2.707-7.99c0-3.43.91-6.3,2.739-8.258a9.269,9.269,0,0,1,7.1-2.934,8.885,8.885,0,0,1,6.909,2.877q2.682,2.877,2.682,8.1c0,.211,0,.528-.016.951H476.428a8.065,8.065,0,0,0,1.967,5.316A5.853,5.853,0,0,0,482.8,33.4a5.46,5.46,0,0,0,3.357-1.032,6.889,6.889,0,0,0,2.2-3.292Zm-11.728-5.771h11.769a7.187,7.187,0,0,0-1.349-3.991,5.474,5.474,0,0,0-4.422-2.064,5.683,5.683,0,0,0-4.137,1.65,6.478,6.478,0,0,0-1.853,4.405Z" transform="translate(-88.497 -6.282)" fill="#224f9f"/>
        <path id="Path_977" data-name="Path 977" d="M1.12,90.137V61.04H22.155v3.43H4.973v8.908H21.066v3.414H4.973v9.9H22.829v3.43H1.12Z" transform="translate(-0.202 -15.029)" fill="#224f9f"/>
        <path id="Path_978" data-name="Path 978" d="M33.76,91.875V70.8h3.219v3.194a8.709,8.709,0,0,1,2.276-2.959,3.927,3.927,0,0,1,2.292-.715,6.94,6.94,0,0,1,3.674,1.154L43.993,74.79a5.138,5.138,0,0,0-2.617-.772,3.407,3.407,0,0,0-2.105.707,3.822,3.822,0,0,0-1.333,1.959,13.859,13.859,0,0,0-.593,4.17V91.883H33.776Z" transform="translate(-6.312 -16.766)" fill="#224f9f"/>
        <path id="Path_979" data-name="Path 979" d="M63.933,89.274a13.348,13.348,0,0,1-3.82,2.381,11.046,11.046,0,0,1-3.942.691,7.672,7.672,0,0,1-5.34-1.7,5.592,5.592,0,0,1-1.861-4.332,5.752,5.752,0,0,1,.707-2.828,5.859,5.859,0,0,1,1.845-2.056,8.922,8.922,0,0,1,2.568-1.17,24.714,24.714,0,0,1,3.178-.536A32.92,32.92,0,0,0,63.641,78.5c.016-.488.016-.8.016-.935a3.933,3.933,0,0,0-1.016-3.072,5.979,5.979,0,0,0-4.064-1.211,6.283,6.283,0,0,0-3.723.886,5.4,5.4,0,0,0-1.772,3.129l-3.495-.48a8.651,8.651,0,0,1,1.569-3.625,6.858,6.858,0,0,1,3.154-2.121,14.048,14.048,0,0,1,4.779-.748,12.667,12.667,0,0,1,4.389.634,5.778,5.778,0,0,1,2.479,1.6,5.646,5.646,0,0,1,1.114,2.43,19.773,19.773,0,0,1,.179,3.292V83.04a50.031,50.031,0,0,0,.228,6.3,8.055,8.055,0,0,0,.9,2.528H64.648a7.5,7.5,0,0,1-.715-2.6Zm-.3-7.973A26.071,26.071,0,0,1,57.8,82.65a13.225,13.225,0,0,0-3.113.715,3.072,3.072,0,0,0-1.406,1.162,3.161,3.161,0,0,0,.585,4.08,4.666,4.666,0,0,0,3.162.951,7.369,7.369,0,0,0,3.674-.9,5.549,5.549,0,0,0,2.365-2.471,8.642,8.642,0,0,0,.577-3.568V81.309Z" transform="translate(-9.16 -16.766)" fill="#224f9f"/>
        <path id="Path_980" data-name="Path 980" d="M76.51,85.59l3.536-.553A4.886,4.886,0,0,0,81.7,88.288a5.771,5.771,0,0,0,3.8,1.13,5.589,5.589,0,0,0,3.649-1,2.985,2.985,0,0,0,1.187-2.349,2.169,2.169,0,0,0-1.048-1.9,15.4,15.4,0,0,0-3.649-1.211A33.282,33.282,0,0,1,80.2,81.241a5.177,5.177,0,0,1-3.08-4.828,5.394,5.394,0,0,1,.642-2.609,5.82,5.82,0,0,1,1.756-1.991,7.481,7.481,0,0,1,2.268-1.04,10.827,10.827,0,0,1,3.089-.423,12.149,12.149,0,0,1,4.356.715A5.988,5.988,0,0,1,92,73a7.512,7.512,0,0,1,1.227,3.267l-3.495.48a3.808,3.808,0,0,0-1.382-2.536,5.049,5.049,0,0,0-3.227-.91,5.813,5.813,0,0,0-3.511.813,2.374,2.374,0,0,0-1.048,1.9A1.976,1.976,0,0,0,81,77.267a3.187,3.187,0,0,0,1.365.951c.358.13,1.406.439,3.154.91a43.79,43.79,0,0,1,5.291,1.658,5.359,5.359,0,0,1,2.349,1.878,5.231,5.231,0,0,1,.853,3.056,5.972,5.972,0,0,1-1.04,3.365,6.749,6.749,0,0,1-3.007,2.438,10.9,10.9,0,0,1-4.446.862q-4.109,0-6.258-1.707a7.917,7.917,0,0,1-2.747-5.064Z" transform="translate(-14.316 -16.772)" fill="#224f9f"/>
        <path id="Path_981" data-name="Path 981" d="M103.27,91.877V70.8h3.194V73.76a7.443,7.443,0,0,1,6.388-3.43,6.889,6.889,0,0,1,3.836.975A5.227,5.227,0,0,1,118.8,74.02a7.56,7.56,0,0,1,6.51-3.69,6.391,6.391,0,0,1,4.82,1.739c1.122,1.154,1.691,2.942,1.691,5.348V91.885h-3.552V78.612a9.673,9.673,0,0,0-.35-3.089,3.045,3.045,0,0,0-1.26-1.52,3.958,3.958,0,0,0-2.146-.577,4.992,4.992,0,0,0-3.69,1.479q-1.475,1.475-1.471,4.73v12.24h-3.568v-13.7a6.044,6.044,0,0,0-.87-3.568,3.306,3.306,0,0,0-2.861-1.187,5.194,5.194,0,0,0-2.788.8,4.472,4.472,0,0,0-1.853,2.325,13.094,13.094,0,0,0-.577,4.405V91.885H103.27Z" transform="translate(-19.326 -16.768)" fill="#224f9f"/>
        <path id="Path_982" data-name="Path 982" d="M158.708,91.985v-3.1a7.711,7.711,0,0,1-6.689,3.568,8.5,8.5,0,0,1-3.487-.715,5.7,5.7,0,0,1-2.4-1.8,6.76,6.76,0,0,1-1.105-2.65,18.022,18.022,0,0,1-.219-3.332V70.91h3.568V82.6a20.777,20.777,0,0,0,.219,3.771,3.709,3.709,0,0,0,1.43,2.211,4.411,4.411,0,0,0,2.7.8,5.922,5.922,0,0,0,3.015-.821,4.585,4.585,0,0,0,1.991-2.243,11.244,11.244,0,0,0,.585-4.121V70.91h3.568V91.985h-3.194Z" transform="translate(-27.103 -16.876)" fill="#224f9f"/>
        <path id="Path_983" data-name="Path 983" d="M170.97,85.59l3.536-.553a4.886,4.886,0,0,0,1.658,3.251,5.771,5.771,0,0,0,3.8,1.13,5.589,5.589,0,0,0,3.649-1,2.985,2.985,0,0,0,1.187-2.349,2.169,2.169,0,0,0-1.048-1.9,15.4,15.4,0,0,0-3.649-1.211,33.282,33.282,0,0,1-5.446-1.715,5.177,5.177,0,0,1-3.08-4.828,5.394,5.394,0,0,1,.642-2.609,5.819,5.819,0,0,1,1.756-1.991,7.481,7.481,0,0,1,2.268-1.04,10.827,10.827,0,0,1,3.089-.423,12.149,12.149,0,0,1,4.356.715A5.988,5.988,0,0,1,186.462,73a7.512,7.512,0,0,1,1.227,3.267l-3.495.48a3.807,3.807,0,0,0-1.382-2.536,5.049,5.049,0,0,0-3.227-.91,5.813,5.813,0,0,0-3.511.813,2.374,2.374,0,0,0-1.048,1.9,1.976,1.976,0,0,0,.439,1.252,3.187,3.187,0,0,0,1.365.951c.358.13,1.406.439,3.154.91a43.79,43.79,0,0,1,5.291,1.658,5.359,5.359,0,0,1,2.349,1.878,5.231,5.231,0,0,1,.853,3.056,5.972,5.972,0,0,1-1.04,3.365,6.75,6.75,0,0,1-3.007,2.438,10.9,10.9,0,0,1-4.446.862q-4.109,0-6.258-1.707a7.917,7.917,0,0,1-2.747-5.064Z" transform="translate(-32.001 -16.772)" fill="#224f9f"/>
        <path id="Path_984" data-name="Path 984" d="M205.136,86.622V78.649H197.22V75.316h7.916V67.4h3.373v7.916h7.916v3.332h-7.916v7.973Z" transform="translate(-36.916 -16.219)" fill="#224f9f"/>
        <path id="Path_985" data-name="Path 985" d="M241.378,90.137V61.04h10.973a26.246,26.246,0,0,1,4.422.276,8.755,8.755,0,0,1,3.592,1.357,7.143,7.143,0,0,1,2.333,2.8,9.451,9.451,0,0,1-1.479,10.249q-2.365,2.572-8.534,2.568h-7.461V90.121H241.37Zm3.853-15.256h7.518q3.731,0,5.3-1.39a4.937,4.937,0,0,0,1.569-3.909,5.214,5.214,0,0,0-.927-3.121,4.288,4.288,0,0,0-2.43-1.715,16.507,16.507,0,0,0-3.592-.26h-7.445v10.4Z" transform="translate(-45.182 -15.029)" fill="#224f9f"/>
        <path id="Path_986" data-name="Path 986" d="M274.12,91.875V70.8h3.219v3.194a8.709,8.709,0,0,1,2.276-2.959,3.927,3.927,0,0,1,2.292-.715,6.94,6.94,0,0,1,3.674,1.154l-1.227,3.316a5.138,5.138,0,0,0-2.617-.772,3.407,3.407,0,0,0-2.105.707,3.823,3.823,0,0,0-1.333,1.959,13.859,13.859,0,0,0-.593,4.17V91.883h-3.568Z" transform="translate(-51.313 -16.766)" fill="#224f9f"/>
        <path id="Path_987" data-name="Path 987" d="M289.178,81.333q0-5.852,3.251-8.672a9.808,9.808,0,0,1,6.624-2.341,9.472,9.472,0,0,1,7.1,2.845q2.755,2.853,2.755,7.868a13.927,13.927,0,0,1-1.219,6.4,8.675,8.675,0,0,1-3.552,3.625,10.319,10.319,0,0,1-5.088,1.292A9.464,9.464,0,0,1,291.9,89.51q-2.731-2.841-2.731-8.177Zm3.674,0q0,4.048,1.764,6.063a5.668,5.668,0,0,0,4.446,2.016,5.59,5.59,0,0,0,4.421-2.024q1.768-2.024,1.764-6.169a8.705,8.705,0,0,0-1.78-5.925,5.883,5.883,0,0,0-8.859-.008c-1.179,1.333-1.764,3.357-1.764,6.055Z" transform="translate(-54.131 -16.766)" fill="#224f9f"/>
        <path id="Path_988" data-name="Path 988" d="M317.655,93.61l3.471.512a3.286,3.286,0,0,0,1.211,2.341,5.969,5.969,0,0,0,3.633.992,6.407,6.407,0,0,0,3.828-.992,4.852,4.852,0,0,0,1.829-2.78,23.023,23.023,0,0,0,.26-4.584,7.346,7.346,0,0,1-5.836,2.755,7.976,7.976,0,0,1-6.73-3.137A12.091,12.091,0,0,1,316.94,81.2a14.085,14.085,0,0,1,1.089-5.568,8.721,8.721,0,0,1,3.162-3.942,8.54,8.54,0,0,1,4.869-1.39,7.57,7.57,0,0,1,6.153,3.015V70.78H335.5V88.994q0,4.925-1,6.974a7.325,7.325,0,0,1-3.178,3.243,10.978,10.978,0,0,1-5.348,1.187,10.12,10.12,0,0,1-6.1-1.7,5.759,5.759,0,0,1-2.243-5.112Zm2.959-12.663c0,2.763.545,4.779,1.65,6.055a5.44,5.44,0,0,0,8.258.008q1.67-1.89,1.666-5.941c0-2.7-.569-4.527-1.715-5.836a5.322,5.322,0,0,0-4.137-1.967,5.119,5.119,0,0,0-4.048,1.934c-1.114,1.292-1.666,3.2-1.666,5.746Z" transform="translate(-59.33 -16.762)" fill="#224f9f"/>
        <path id="Path_989" data-name="Path 989" d="M346.39,91.875V70.8h3.219v3.194a8.71,8.71,0,0,1,2.276-2.959,3.927,3.927,0,0,1,2.292-.715,6.94,6.94,0,0,1,3.674,1.154l-1.227,3.316a5.138,5.138,0,0,0-2.617-.772,3.407,3.407,0,0,0-2.105.707,3.822,3.822,0,0,0-1.333,1.959,13.859,13.859,0,0,0-.593,4.17V91.883h-3.568Z" transform="translate(-64.844 -16.766)" fill="#224f9f"/>
        <path id="Path_990" data-name="Path 990" d="M376.553,89.274a13.348,13.348,0,0,1-3.82,2.381,11.046,11.046,0,0,1-3.942.691,7.672,7.672,0,0,1-5.34-1.7,5.593,5.593,0,0,1-1.861-4.332,5.751,5.751,0,0,1,.707-2.828,5.859,5.859,0,0,1,1.845-2.056,8.924,8.924,0,0,1,2.568-1.17,24.714,24.714,0,0,1,3.178-.536,32.92,32.92,0,0,0,6.372-1.227c.016-.488.016-.8.016-.935a3.933,3.933,0,0,0-1.016-3.072,5.979,5.979,0,0,0-4.064-1.211,6.282,6.282,0,0,0-3.723.886,5.4,5.4,0,0,0-1.772,3.129l-3.495-.48a8.651,8.651,0,0,1,1.569-3.625,6.858,6.858,0,0,1,3.154-2.121,14.048,14.048,0,0,1,4.779-.748,12.667,12.667,0,0,1,4.389.634,5.778,5.778,0,0,1,2.479,1.6,5.647,5.647,0,0,1,1.113,2.43,19.777,19.777,0,0,1,.179,3.292V83.04a50.03,50.03,0,0,0,.228,6.3,8.055,8.055,0,0,0,.9,2.528h-3.731a7.5,7.5,0,0,1-.715-2.6Zm-.3-7.973a26.071,26.071,0,0,1-5.836,1.349,13.225,13.225,0,0,0-3.113.715,3.072,3.072,0,0,0-1.406,1.162,3.161,3.161,0,0,0,.585,4.08,4.666,4.666,0,0,0,3.162.951,7.369,7.369,0,0,0,3.674-.9,5.549,5.549,0,0,0,2.365-2.471,8.642,8.642,0,0,0,.577-3.568V81.309Z" transform="translate(-67.689 -16.766)" fill="#224f9f"/>
        <path id="Path_991" data-name="Path 991" d="M390.89,91.877V70.8h3.194V73.76a7.443,7.443,0,0,1,6.388-3.43,6.889,6.889,0,0,1,3.836.975,5.227,5.227,0,0,1,2.113,2.715,7.56,7.56,0,0,1,6.51-3.69,6.391,6.391,0,0,1,4.82,1.739c1.122,1.154,1.691,2.942,1.691,5.348V91.885h-3.552V78.612a9.673,9.673,0,0,0-.349-3.089,3.045,3.045,0,0,0-1.26-1.52,3.958,3.958,0,0,0-2.146-.577,4.992,4.992,0,0,0-3.69,1.479q-1.475,1.475-1.471,4.73v12.24h-3.568v-13.7a6.044,6.044,0,0,0-.87-3.568,3.306,3.306,0,0,0-2.861-1.187,5.194,5.194,0,0,0-2.788.8,4.472,4.472,0,0,0-1.853,2.325,13.094,13.094,0,0,0-.577,4.405V91.885H390.89Z" transform="translate(-73.175 -16.768)" fill="#224f9f"/>
        <path id="Path_992" data-name="Path 992" d="M432.54,91.877V70.8h3.194V73.76a7.443,7.443,0,0,1,6.388-3.43,6.889,6.889,0,0,1,3.836.975,5.227,5.227,0,0,1,2.113,2.715,7.56,7.56,0,0,1,6.51-3.69,6.391,6.391,0,0,1,4.82,1.739c1.122,1.154,1.691,2.942,1.691,5.348V91.885h-3.552V78.612a9.673,9.673,0,0,0-.349-3.089,3.045,3.045,0,0,0-1.26-1.52,3.958,3.958,0,0,0-2.146-.577,4.992,4.992,0,0,0-3.69,1.479q-1.475,1.475-1.471,4.73v12.24h-3.568v-13.7a6.044,6.044,0,0,0-.87-3.568,3.306,3.306,0,0,0-2.861-1.187,5.194,5.194,0,0,0-2.788.8,4.472,4.472,0,0,0-1.853,2.325,13.094,13.094,0,0,0-.577,4.405V91.885H432.54Z" transform="translate(-80.973 -16.768)" fill="#224f9f"/>
        <path id="Path_993" data-name="Path 993" d="M488.344,85.09l3.69.455a9.039,9.039,0,0,1-3.235,5.023,9.752,9.752,0,0,1-6.031,1.788,9.654,9.654,0,0,1-7.331-2.845q-2.706-2.841-2.707-7.99c0-3.43.91-6.3,2.739-8.258a9.269,9.269,0,0,1,7.1-2.934,8.885,8.885,0,0,1,6.909,2.877q2.682,2.877,2.682,8.1c0,.211,0,.528-.016.951H476.428a8.065,8.065,0,0,0,1.967,5.316,5.853,5.853,0,0,0,4.405,1.845,5.46,5.46,0,0,0,3.357-1.032,6.889,6.889,0,0,0,2.2-3.292Zm-11.728-5.771h11.769a7.187,7.187,0,0,0-1.349-3.991,5.474,5.474,0,0,0-4.422-2.064,5.683,5.683,0,0,0-4.137,1.65,6.478,6.478,0,0,0-1.853,4.405Z" transform="translate(-88.497 -16.768)" fill="#224f9f"/>
        <path id="Path_994" data-name="Path 994" d="M0,137.333q0-5.852,3.251-8.672a9.808,9.808,0,0,1,6.624-2.341,9.472,9.472,0,0,1,7.1,2.845q2.755,2.841,2.755,7.868a13.926,13.926,0,0,1-1.219,6.4,8.675,8.675,0,0,1-3.552,3.625,10.318,10.318,0,0,1-5.088,1.292,9.464,9.464,0,0,1-7.152-2.837Q-.01,142.669-.01,137.333Zm3.674,0q0,4.048,1.764,6.063a5.668,5.668,0,0,0,4.446,2.016,5.59,5.59,0,0,0,4.422-2.024q1.768-2.024,1.764-6.169,0-3.914-1.78-5.925a5.661,5.661,0,0,0-4.413-2.016,5.708,5.708,0,0,0-4.446,2.008c-1.179,1.333-1.764,3.357-1.764,6.055Z" transform="translate(0.01 -27.25)" fill="#224f9f"/>
        <path id="Path_995" data-name="Path 995" d="M29.764,146.025v-18.3H26.61v-2.78h3.154v-2.243a9.791,9.791,0,0,1,.374-3.154A4.576,4.576,0,0,1,31.95,117.3a6.539,6.539,0,0,1,3.641-.862,17.667,17.667,0,0,1,3.332.358l-.536,3.113a12.15,12.15,0,0,0-2.105-.2,3.162,3.162,0,0,0-2.3.691,3.787,3.787,0,0,0-.675,2.6v1.943h4.1v2.78h-4.1v18.3H29.755Z" transform="translate(-4.974 -25.401)" fill="#224f9f"/>
        <path id="Path_996" data-name="Path 996" d="M64.57,143.083l.512,3.154a13.264,13.264,0,0,1-2.7.317,6.047,6.047,0,0,1-3.015-.618,3.484,3.484,0,0,1-1.512-1.617,12.718,12.718,0,0,1-.439-4.218V127.973H54.8v-2.78h2.617v-5.218l3.552-2.146v7.364h3.592v2.78H60.969V140.3a6.4,6.4,0,0,0,.187,1.967,1.494,1.494,0,0,0,.618.691,2.385,2.385,0,0,0,1.219.26,12.172,12.172,0,0,0,1.569-.138Z" transform="translate(-10.252 -25.661)" fill="#224f9f"/>
        <path id="Path_997" data-name="Path 997" d="M71.12,146.139V117.05h3.568v10.436A7.966,7.966,0,0,1,81,124.593a8.545,8.545,0,0,1,4.064.918,5.4,5.4,0,0,1,2.471,2.552,11.733,11.733,0,0,1,.748,4.722v13.354H84.71V132.785a5.527,5.527,0,0,0-1.162-3.9,4.317,4.317,0,0,0-3.284-1.219,5.807,5.807,0,0,0-2.983.821,4.608,4.608,0,0,0-1.991,2.235,10.249,10.249,0,0,0-.593,3.893v11.525H71.128Z" transform="translate(-13.307 -25.515)" fill="#224f9f"/>
        <path id="Path_998" data-name="Path 998" d="M113.073,141.09l3.69.455a9.038,9.038,0,0,1-3.235,5.023,9.752,9.752,0,0,1-6.031,1.788,9.654,9.654,0,0,1-7.331-2.845q-2.707-2.841-2.707-7.99c0-3.43.91-6.3,2.739-8.258a9.269,9.269,0,0,1,7.1-2.934,8.885,8.885,0,0,1,6.909,2.877q2.682,2.877,2.682,8.1c0,.211,0,.528-.016.951H101.158a8.066,8.066,0,0,0,1.967,5.316,5.853,5.853,0,0,0,4.405,1.845,5.46,5.46,0,0,0,3.357-1.032,6.89,6.89,0,0,0,2.2-3.292Zm-11.728-5.771h11.769a7.187,7.187,0,0,0-1.349-3.991,5.474,5.474,0,0,0-4.422-2.064,5.683,5.683,0,0,0-4.137,1.65,6.478,6.478,0,0,0-1.853,4.405Z" transform="translate(-18.238 -27.252)" fill="#224f9f"/>
        <path id="Path_999" data-name="Path 999" d="M141.28,146.139V117.05h21.035v3.43H145.133v8.908h16.093V132.8H145.133v9.9h17.857v3.43H141.28Z" transform="translate(-26.443 -25.515)" fill="#224f9f"/>
        <path id="Path_1000" data-name="Path 1000" d="M187.769,147.985v-3.1a7.711,7.711,0,0,1-6.689,3.568,8.5,8.5,0,0,1-3.487-.715,5.7,5.7,0,0,1-2.4-1.8,6.76,6.76,0,0,1-1.105-2.65,18.021,18.021,0,0,1-.219-3.332V126.91h3.568V138.6a20.775,20.775,0,0,0,.219,3.771,3.709,3.709,0,0,0,1.43,2.211,4.41,4.41,0,0,0,2.7.8,5.923,5.923,0,0,0,3.015-.821,4.586,4.586,0,0,0,1.991-2.243,11.245,11.245,0,0,0,.585-4.121V126.91h3.568v21.075h-3.194Z" transform="translate(-32.544 -27.361)" fill="#224f9f"/>
        <path id="Path_1001" data-name="Path 1001" d="M201.73,147.875V126.8h3.219v3.194a8.709,8.709,0,0,1,2.276-2.959,3.927,3.927,0,0,1,2.292-.715,6.941,6.941,0,0,1,3.674,1.154l-1.227,3.316a5.138,5.138,0,0,0-2.617-.772,3.407,3.407,0,0,0-2.105.707,3.833,3.833,0,0,0-1.333,1.951,13.858,13.858,0,0,0-.593,4.17v11.029h-3.568Z" transform="translate(-37.76 -27.25)" fill="#224f9f"/>
        <path id="Path_1002" data-name="Path 1002" d="M216.8,137.333q0-5.852,3.251-8.672a9.808,9.808,0,0,1,6.624-2.341,9.472,9.472,0,0,1,7.1,2.845q2.755,2.841,2.755,7.868a13.926,13.926,0,0,1-1.219,6.4,8.675,8.675,0,0,1-3.552,3.625,10.318,10.318,0,0,1-5.088,1.292,9.464,9.464,0,0,1-7.152-2.837q-2.731-2.841-2.731-8.177Zm3.674,0q0,4.048,1.764,6.063a5.668,5.668,0,0,0,4.446,2.016,5.59,5.59,0,0,0,4.422-2.024q1.768-2.024,1.764-6.169,0-3.914-1.78-5.925a5.883,5.883,0,0,0-8.859-.008c-1.179,1.333-1.764,3.357-1.764,6.055Z" transform="translate(-40.58 -27.25)" fill="#224f9f"/>
        <path id="Path_1003" data-name="Path 1003" d="M246.24,155.946V126.8h3.251v2.739a7.982,7.982,0,0,1,2.6-2.414,7.141,7.141,0,0,1,3.511-.8,8.327,8.327,0,0,1,4.763,1.39,8.541,8.541,0,0,1,3.113,3.918,14.328,14.328,0,0,1,1.048,5.543A14.157,14.157,0,0,1,263.365,143a8.835,8.835,0,0,1-8.022,5.348,6.7,6.7,0,0,1-3.2-.756,7.4,7.4,0,0,1-2.333-1.9v10.257H246.24Zm3.235-18.491c0,2.715.545,4.714,1.65,6.015a5.04,5.04,0,0,0,3.991,1.943,5.223,5.223,0,0,0,4.08-2.016q1.695-2.012,1.7-6.242c0-2.82-.553-4.7-1.658-6.031a5,5,0,0,0-3.958-2.008,5.143,5.143,0,0,0-4.039,2.129q-1.756,2.134-1.756,6.2Z" transform="translate(-46.093 -27.25)" fill="#224f9f"/>
        <path id="Path_1004" data-name="Path 1004" d="M288.2,141.09l3.69.455a9.038,9.038,0,0,1-3.235,5.023,9.752,9.752,0,0,1-6.031,1.788,9.654,9.654,0,0,1-7.331-2.845q-2.707-2.841-2.707-7.99c0-3.43.91-6.3,2.739-8.258a9.269,9.269,0,0,1,7.1-2.934,8.885,8.885,0,0,1,6.909,2.877q2.682,2.877,2.682,8.1c0,.211,0,.528-.016.951H276.288a8.065,8.065,0,0,0,1.967,5.316,5.853,5.853,0,0,0,4.405,1.845,5.46,5.46,0,0,0,3.357-1.032,6.889,6.889,0,0,0,2.2-3.292Zm-11.728-5.771h11.769a7.187,7.187,0,0,0-1.349-3.991,5.474,5.474,0,0,0-4.422-2.064,5.683,5.683,0,0,0-4.137,1.65,6.478,6.478,0,0,0-1.853,4.405Z" transform="translate(-51.027 -27.252)" fill="#224f9f"/>
        <path id="Path_1005" data-name="Path 1005" d="M315.323,145.272a13.347,13.347,0,0,1-3.82,2.381,11.046,11.046,0,0,1-3.942.691,7.672,7.672,0,0,1-5.34-1.7,5.593,5.593,0,0,1-1.861-4.332,5.752,5.752,0,0,1,.707-2.828,5.859,5.859,0,0,1,1.845-2.056,8.922,8.922,0,0,1,2.568-1.17,24.709,24.709,0,0,1,3.178-.536,32.923,32.923,0,0,0,6.372-1.227c.016-.488.016-.8.016-.935a3.933,3.933,0,0,0-1.016-3.072,5.979,5.979,0,0,0-4.064-1.211,6.282,6.282,0,0,0-3.723.886,5.4,5.4,0,0,0-1.772,3.121l-3.495-.48a8.651,8.651,0,0,1,1.569-3.625,6.858,6.858,0,0,1,3.154-2.121,14.048,14.048,0,0,1,4.779-.748,12.667,12.667,0,0,1,4.389.634,5.845,5.845,0,0,1,2.479,1.593,5.647,5.647,0,0,1,1.114,2.43,19.778,19.778,0,0,1,.179,3.292v4.763a50.028,50.028,0,0,0,.228,6.3,8.055,8.055,0,0,0,.9,2.528h-3.731a7.5,7.5,0,0,1-.715-2.6Zm-.3-7.973a26.072,26.072,0,0,1-5.836,1.349,13.225,13.225,0,0,0-3.113.715,3.073,3.073,0,0,0-1.406,1.162,3.161,3.161,0,0,0,.585,4.08,4.666,4.666,0,0,0,3.162.951,7.368,7.368,0,0,0,3.674-.9,5.549,5.549,0,0,0,2.365-2.471,8.642,8.642,0,0,0,.577-3.568v-1.309Z" transform="translate(-56.226 -27.249)" fill="#224f9f"/>
        <path id="Path_1006" data-name="Path 1006" d="M329.66,147.877V126.8h3.219v3a7.561,7.561,0,0,1,6.705-3.471,8.83,8.83,0,0,1,3.5.683,5.5,5.5,0,0,1,2.39,1.8,6.871,6.871,0,0,1,1.114,2.642,20.778,20.778,0,0,1,.2,3.471v12.956h-3.568V135.059a9.7,9.7,0,0,0-.415-3.267,3.386,3.386,0,0,0-1.479-1.723,4.684,4.684,0,0,0-2.487-.642,5.79,5.79,0,0,0-3.942,1.447q-1.658,1.451-1.658,5.494v11.509h-3.568Z" transform="translate(-61.711 -27.252)" fill="#224f9f"/>
        <path id="Path_1007" data-name="Path 1007" d="M391.025,117.04h3.853v16.808a19.974,19.974,0,0,1-.992,6.966,8.421,8.421,0,0,1-3.584,4.194,12.646,12.646,0,0,1-6.795,1.617,13.812,13.812,0,0,1-6.689-1.406,8.1,8.1,0,0,1-3.714-4.08,19.449,19.449,0,0,1-1.113-7.291V117.04h3.853v16.784a16.282,16.282,0,0,0,.707,5.584,5.375,5.375,0,0,0,2.422,2.772,8.38,8.38,0,0,0,4.194.975q4.243,0,6.055-1.926c1.2-1.284,1.8-3.747,1.8-7.4V117.04Z" transform="translate(-69.636 -25.513)" fill="#224f9f"/>
        <path id="Path_1008" data-name="Path 1008" d="M407.47,147.877V126.8h3.219v3a7.561,7.561,0,0,1,6.705-3.471,8.83,8.83,0,0,1,3.5.683,5.5,5.5,0,0,1,2.39,1.8,6.87,6.87,0,0,1,1.114,2.642,20.774,20.774,0,0,1,.2,3.471v12.956h-3.568V135.059a9.7,9.7,0,0,0-.415-3.267,3.386,3.386,0,0,0-1.479-1.723,4.684,4.684,0,0,0-2.487-.642,5.79,5.79,0,0,0-3.942,1.447q-1.658,1.451-1.658,5.494v11.509h-3.568Z" transform="translate(-76.279 -27.252)" fill="#224f9f"/>
        <path id="Path_1009" data-name="Path 1009" d="M435.3,121.155v-4.1h3.568v4.1Zm0,24.985V125.064h3.568v21.075Z" transform="translate(-81.489 -25.515)" fill="#224f9f"/>
        <path id="Path_1010" data-name="Path 1010" d="M444.748,137.333q0-5.852,3.251-8.672a9.808,9.808,0,0,1,6.624-2.341,9.472,9.472,0,0,1,7.1,2.845q2.755,2.841,2.755,7.868a13.926,13.926,0,0,1-1.219,6.4,8.675,8.675,0,0,1-3.552,3.625,10.318,10.318,0,0,1-5.088,1.292,9.464,9.464,0,0,1-7.152-2.837q-2.731-2.841-2.731-8.177Zm3.674,0q0,4.048,1.764,6.063a5.668,5.668,0,0,0,4.446,2.016,5.59,5.59,0,0,0,4.422-2.024q1.768-2.024,1.764-6.169,0-3.914-1.78-5.925a5.883,5.883,0,0,0-8.859-.008c-1.179,1.333-1.764,3.357-1.764,6.055Z" transform="translate(-83.257 -27.25)" fill="#224f9f"/>
        <path id="Path_1011" data-name="Path 1011" d="M474.19,147.877V126.8h3.219v3a7.561,7.561,0,0,1,6.705-3.471,8.83,8.83,0,0,1,3.5.683,5.5,5.5,0,0,1,2.39,1.8,6.871,6.871,0,0,1,1.114,2.642,20.782,20.782,0,0,1,.2,3.471v12.956h-3.568V135.059a9.7,9.7,0,0,0-.415-3.267,3.386,3.386,0,0,0-1.479-1.723,4.684,4.684,0,0,0-2.487-.642,5.79,5.79,0,0,0-3.942,1.447q-1.658,1.451-1.658,5.494v11.509H474.2Z" transform="translate(-88.77 -27.252)" fill="#224f9f"/>
      </g>
    </g>
  </g>
</svg>
